<mxfile host="Electron" modified="2023-09-17T16:07:51.381Z" agent="Mozilla/5.0 (Windows NT 10.0; Win64; x64) AppleWebKit/537.36 (KHTML, like Gecko) draw.io/21.1.2 Chrome/106.0.5249.199 Electron/21.4.3 Safari/537.36" etag="NTB5jRIyPclvenI7OVdn" version="21.1.2" type="device">
  <diagram name="Page-1" id="IT5rea4_Bto_5vkOmj1d">
    <mxGraphModel dx="938" dy="648" grid="1" gridSize="10" guides="1" tooltips="1" connect="1" arrows="1" fold="1" page="1" pageScale="1" pageWidth="850" pageHeight="1100" math="0" shadow="0">
      <root>
        <mxCell id="0" />
        <mxCell id="1" parent="0" />
        <mxCell id="BIbVjL80IyFpYf1687JR-3" value="Calzone Web Backend" style="swimlane;whiteSpace=wrap;html=1;" parent="1" vertex="1">
          <mxGeometry x="470" y="240" width="390" height="280" as="geometry" />
        </mxCell>
        <mxCell id="BIbVjL80IyFpYf1687JR-5" value="ExpressJS" style="rounded=0;whiteSpace=wrap;html=1;" parent="BIbVjL80IyFpYf1687JR-3" vertex="1">
          <mxGeometry x="40" y="50" width="120" height="60" as="geometry" />
        </mxCell>
        <mxCell id="BIbVjL80IyFpYf1687JR-6" value="&lt;a href=&quot;https://www.npmjs.com/package/activitypub-express&quot;&gt;Express-ActivityPub&lt;/a&gt;" style="rounded=0;whiteSpace=wrap;html=1;" parent="BIbVjL80IyFpYf1687JR-3" vertex="1">
          <mxGeometry x="210" y="190" width="120" height="60" as="geometry" />
        </mxCell>
        <mxCell id="BIbVjL80IyFpYf1687JR-7" value="" style="endArrow=none;html=1;rounded=0;" parent="BIbVjL80IyFpYf1687JR-3" source="BIbVjL80IyFpYf1687JR-6" target="BIbVjL80IyFpYf1687JR-5" edge="1">
          <mxGeometry width="50" height="50" relative="1" as="geometry">
            <mxPoint x="-120" y="120" as="sourcePoint" />
            <mxPoint x="-70" y="70" as="targetPoint" />
          </mxGeometry>
        </mxCell>
        <mxCell id="BIbVjL80IyFpYf1687JR-8" value="&lt;a href=&quot;https://www.npmjs.com/package/express-fileupload&quot;&gt;Express-FileUpload&lt;/a&gt;" style="rounded=0;whiteSpace=wrap;html=1;" parent="BIbVjL80IyFpYf1687JR-3" vertex="1">
          <mxGeometry x="190" y="50" width="120" height="60" as="geometry" />
        </mxCell>
        <mxCell id="BIbVjL80IyFpYf1687JR-9" value="" style="endArrow=none;html=1;rounded=0;" parent="BIbVjL80IyFpYf1687JR-3" source="BIbVjL80IyFpYf1687JR-8" target="BIbVjL80IyFpYf1687JR-5" edge="1">
          <mxGeometry width="50" height="50" relative="1" as="geometry">
            <mxPoint x="100" y="120" as="sourcePoint" />
            <mxPoint x="150" y="70" as="targetPoint" />
          </mxGeometry>
        </mxCell>
        <mxCell id="BIbVjL80IyFpYf1687JR-19" value="Mongo?" style="rounded=0;whiteSpace=wrap;html=1;" parent="BIbVjL80IyFpYf1687JR-3" vertex="1">
          <mxGeometry x="250" y="120" width="120" height="60" as="geometry" />
        </mxCell>
        <mxCell id="BIbVjL80IyFpYf1687JR-20" value="" style="endArrow=none;html=1;rounded=0;" parent="BIbVjL80IyFpYf1687JR-3" source="BIbVjL80IyFpYf1687JR-19" target="BIbVjL80IyFpYf1687JR-6" edge="1">
          <mxGeometry width="50" height="50" relative="1" as="geometry">
            <mxPoint x="-80" y="140" as="sourcePoint" />
            <mxPoint x="-30" y="90" as="targetPoint" />
          </mxGeometry>
        </mxCell>
        <mxCell id="bZqsUcijTYxGX1L42NSj-1" value="Signalling Server?" style="rounded=0;whiteSpace=wrap;html=1;" parent="BIbVjL80IyFpYf1687JR-3" vertex="1">
          <mxGeometry x="40" y="150" width="120" height="60" as="geometry" />
        </mxCell>
        <mxCell id="bZqsUcijTYxGX1L42NSj-3" value="" style="endArrow=none;html=1;rounded=0;" parent="BIbVjL80IyFpYf1687JR-3" source="bZqsUcijTYxGX1L42NSj-1" target="BIbVjL80IyFpYf1687JR-5" edge="1">
          <mxGeometry width="50" height="50" relative="1" as="geometry">
            <mxPoint x="-10" y="120" as="sourcePoint" />
            <mxPoint x="40" y="70" as="targetPoint" />
          </mxGeometry>
        </mxCell>
        <mxCell id="BIbVjL80IyFpYf1687JR-4" value="Calzone Game" style="swimlane;whiteSpace=wrap;html=1;" parent="1" vertex="1">
          <mxGeometry x="20" y="240" width="360" height="280" as="geometry" />
        </mxCell>
        <mxCell id="BIbVjL80IyFpYf1687JR-1" value="Godot Game" style="rounded=0;whiteSpace=wrap;html=1;" parent="BIbVjL80IyFpYf1687JR-4" vertex="1">
          <mxGeometry x="180" y="50" width="120" height="60" as="geometry" />
        </mxCell>
        <mxCell id="BIbVjL80IyFpYf1687JR-10" value="&lt;a href=&quot;https://github.com/godotengine/webrtc-native&quot;&gt;Godot WebRTC Native&lt;/a&gt;" style="rounded=0;whiteSpace=wrap;html=1;" parent="BIbVjL80IyFpYf1687JR-4" vertex="1">
          <mxGeometry x="220" y="140" width="120" height="60" as="geometry" />
        </mxCell>
        <mxCell id="BIbVjL80IyFpYf1687JR-11" value="" style="endArrow=none;html=1;rounded=0;" parent="BIbVjL80IyFpYf1687JR-4" source="BIbVjL80IyFpYf1687JR-1" target="BIbVjL80IyFpYf1687JR-10" edge="1">
          <mxGeometry width="50" height="50" relative="1" as="geometry">
            <mxPoint x="340" y="100" as="sourcePoint" />
            <mxPoint x="390" y="50" as="targetPoint" />
          </mxGeometry>
        </mxCell>
        <mxCell id="BIbVjL80IyFpYf1687JR-15" value="&lt;a href=&quot;https://docs.godotengine.org/en/stable/classes/class_resourceloader.html&quot;&gt;Godot Resource Loader&lt;/a&gt;" style="rounded=0;whiteSpace=wrap;html=1;" parent="BIbVjL80IyFpYf1687JR-4" vertex="1">
          <mxGeometry x="20" y="50" width="120" height="60" as="geometry" />
        </mxCell>
        <mxCell id="BIbVjL80IyFpYf1687JR-16" value="" style="endArrow=none;html=1;rounded=0;" parent="BIbVjL80IyFpYf1687JR-4" source="BIbVjL80IyFpYf1687JR-15" target="BIbVjL80IyFpYf1687JR-1" edge="1">
          <mxGeometry width="50" height="50" relative="1" as="geometry">
            <mxPoint x="360" y="110" as="sourcePoint" />
            <mxPoint x="410" y="60" as="targetPoint" />
          </mxGeometry>
        </mxCell>
        <mxCell id="BIbVjL80IyFpYf1687JR-17" value="Godot OpenXR" style="rounded=0;whiteSpace=wrap;html=1;" parent="BIbVjL80IyFpYf1687JR-4" vertex="1">
          <mxGeometry x="20" y="140" width="120" height="60" as="geometry" />
        </mxCell>
        <mxCell id="BIbVjL80IyFpYf1687JR-18" value="" style="endArrow=none;html=1;rounded=0;" parent="BIbVjL80IyFpYf1687JR-4" source="BIbVjL80IyFpYf1687JR-1" target="BIbVjL80IyFpYf1687JR-17" edge="1">
          <mxGeometry width="50" height="50" relative="1" as="geometry">
            <mxPoint x="360" y="110" as="sourcePoint" />
            <mxPoint x="410" y="60" as="targetPoint" />
          </mxGeometry>
        </mxCell>
        <mxCell id="ZyI1VARRn6LoQiqQzWN_-1" value="&lt;a href=&quot;https://github.com/videolan/libvlcsharp&quot;&gt;LibVLC (Sharp)&lt;/a&gt;" style="rounded=0;whiteSpace=wrap;html=1;" parent="BIbVjL80IyFpYf1687JR-4" vertex="1">
          <mxGeometry x="90" y="210" width="120" height="60" as="geometry" />
        </mxCell>
        <mxCell id="ZyI1VARRn6LoQiqQzWN_-2" value="" style="endArrow=none;html=1;rounded=0;" parent="BIbVjL80IyFpYf1687JR-4" source="BIbVjL80IyFpYf1687JR-1" target="ZyI1VARRn6LoQiqQzWN_-1" edge="1">
          <mxGeometry width="50" height="50" relative="1" as="geometry">
            <mxPoint x="440" y="120" as="sourcePoint" />
            <mxPoint x="490" y="70" as="targetPoint" />
          </mxGeometry>
        </mxCell>
        <mxCell id="BIbVjL80IyFpYf1687JR-13" value="" style="endArrow=classic;startArrow=classic;html=1;rounded=0;" parent="1" source="BIbVjL80IyFpYf1687JR-1" target="BIbVjL80IyFpYf1687JR-5" edge="1">
          <mxGeometry width="50" height="50" relative="1" as="geometry">
            <mxPoint x="360" y="340" as="sourcePoint" />
            <mxPoint x="410" y="290" as="targetPoint" />
          </mxGeometry>
        </mxCell>
        <mxCell id="BIbVjL80IyFpYf1687JR-14" value="HTTP Request" style="edgeLabel;html=1;align=center;verticalAlign=middle;resizable=0;points=[];" parent="BIbVjL80IyFpYf1687JR-13" vertex="1" connectable="0">
          <mxGeometry x="0.2894" y="2" relative="1" as="geometry">
            <mxPoint x="-14" y="-14" as="offset" />
          </mxGeometry>
        </mxCell>
        <mxCell id="bZqsUcijTYxGX1L42NSj-2" value="" style="endArrow=classic;startArrow=classic;html=1;rounded=0;" parent="1" source="BIbVjL80IyFpYf1687JR-10" target="bZqsUcijTYxGX1L42NSj-1" edge="1">
          <mxGeometry width="50" height="50" relative="1" as="geometry">
            <mxPoint x="460" y="360" as="sourcePoint" />
            <mxPoint x="510" y="310" as="targetPoint" />
          </mxGeometry>
        </mxCell>
        <mxCell id="19F03CZJJGipNKZsI7sg-1" value="Not Started" style="rounded=0;whiteSpace=wrap;html=1;" vertex="1" parent="1">
          <mxGeometry x="140" y="550" width="120" height="60" as="geometry" />
        </mxCell>
        <mxCell id="19F03CZJJGipNKZsI7sg-2" value="Preliminary" style="rounded=0;whiteSpace=wrap;html=1;fillColor=#fff2cc;strokeColor=#d6b656;" vertex="1" parent="1">
          <mxGeometry x="280" y="550" width="120" height="60" as="geometry" />
        </mxCell>
        <mxCell id="19F03CZJJGipNKZsI7sg-3" value="Unstable/Testing" style="rounded=0;whiteSpace=wrap;html=1;fillColor=#ffe6cc;strokeColor=#d79b00;" vertex="1" parent="1">
          <mxGeometry x="420" y="550" width="120" height="60" as="geometry" />
        </mxCell>
        <mxCell id="19F03CZJJGipNKZsI7sg-4" value="Ready" style="rounded=0;whiteSpace=wrap;html=1;fillColor=#d5e8d4;strokeColor=#82b366;" vertex="1" parent="1">
          <mxGeometry x="560" y="550" width="120" height="60" as="geometry" />
        </mxCell>
        <mxCell id="19F03CZJJGipNKZsI7sg-5" value="" style="endArrow=classic;html=1;rounded=0;" edge="1" parent="1" source="19F03CZJJGipNKZsI7sg-1" target="19F03CZJJGipNKZsI7sg-2">
          <mxGeometry width="50" height="50" relative="1" as="geometry">
            <mxPoint x="420" y="490" as="sourcePoint" />
            <mxPoint x="470" y="440" as="targetPoint" />
          </mxGeometry>
        </mxCell>
        <mxCell id="19F03CZJJGipNKZsI7sg-6" value="" style="endArrow=classic;html=1;rounded=0;" edge="1" parent="1" source="19F03CZJJGipNKZsI7sg-2" target="19F03CZJJGipNKZsI7sg-3">
          <mxGeometry width="50" height="50" relative="1" as="geometry">
            <mxPoint x="420" y="490" as="sourcePoint" />
            <mxPoint x="470" y="440" as="targetPoint" />
          </mxGeometry>
        </mxCell>
        <mxCell id="19F03CZJJGipNKZsI7sg-7" value="" style="endArrow=classic;startArrow=classic;html=1;rounded=0;" edge="1" parent="1" source="19F03CZJJGipNKZsI7sg-3" target="19F03CZJJGipNKZsI7sg-4">
          <mxGeometry width="50" height="50" relative="1" as="geometry">
            <mxPoint x="420" y="490" as="sourcePoint" />
            <mxPoint x="470" y="440" as="targetPoint" />
          </mxGeometry>
        </mxCell>
      </root>
    </mxGraphModel>
  </diagram>
</mxfile>
